<?xml version="1.0" standalone="no"?>
<!DOCTYPE svg PUBLIC "-//W3C//DTD SVG 20010904//EN"
 "http://www.w3.org/TR/2001/REC-SVG-20010904/DTD/svg10.dtd">
<svg version="1.0" xmlns="http://www.w3.org/2000/svg"
 width="450.000000pt" height="450.000000pt" viewBox="0 0 450.000000 450.000000"
 preserveAspectRatio="xMidYMid meet">
<metadata>
Created by potrace 1.11, written by Peter Selinger 2001-2013
</metadata>
<g transform="translate(0.000000,450.000000) scale(0.100000,-0.100000)"
fill="#000000" stroke="none">
<path d="M1498 4196 c-9 -8 -18 -12 -21 -9 -4 3 -12 -6 -18 -21 -7 -14 -16
-26 -21 -26 -5 0 -6 -4 -3 -10 3 -5 2 -10 -3 -10 -5 0 -9 -6 -10 -12 0 -7 -3
-20 -5 -28 -16 -59 -20 -70 -29 -70 -5 0 -7 -4 -3 -9 3 -5 1 -12 -5 -16 -6 -4
-8 -10 -5 -15 3 -4 -2 -11 -11 -14 -9 -4 -14 -9 -11 -13 4 -3 -1 -12 -11 -20
-11 -10 -12 -12 -2 -8 10 4 9 2 -2 -8 -10 -8 -18 -19 -18 -26 0 -6 -4 -11 -10
-11 -5 0 -10 -7 -10 -15 0 -8 -5 -15 -12 -15 -6 0 -9 -3 -5 -6 3 -3 -3 -14
-14 -25 -10 -10 -19 -26 -19 -35 0 -8 -4 -12 -10 -9 -5 3 -10 0 -10 -8 0 -8
-7 -20 -15 -27 -8 -7 -12 -16 -9 -21 3 -5 0 -9 -6 -9 -6 0 -8 -4 -5 -10 3 -5
-1 -10 -10 -10 -9 0 -14 -4 -11 -8 3 -5 -8 -21 -24 -36 -16 -15 -29 -32 -27
-39 1 -6 -5 -11 -13 -12 -8 -1 -14 -6 -12 -13 2 -11 -10 -16 -30 -13 -4 0 -4
-7 -1 -16 4 -9 2 -14 -3 -10 -6 3 -18 -10 -29 -29 -10 -19 -22 -34 -27 -34 -5
0 -6 -4 -3 -10 3 -5 2 -10 -2 -10 -15 0 -7 -54 8 -59 18 -5 44 -41 44 -61 0
-8 10 -16 23 -18 12 -2 22 -7 22 -12 0 -4 9 -10 20 -13 11 -3 20 -13 20 -24 0
-15 2 -16 10 -3 6 9 10 10 10 3 0 -17 49 -65 60 -58 4 3 11 -1 13 -7 4 -10 6
-10 6 0 1 7 5 11 10 7 5 -3 16 4 24 15 7 11 17 17 20 13 4 -3 7 -1 7 5 0 7 6
11 13 9 6 -1 11 3 10 10 -2 8 4 10 14 6 11 -4 14 -3 9 5 -4 7 -2 13 3 13 21 3
27 5 89 37 34 17 68 31 75 29 6 -1 11 3 10 8 -1 6 8 11 20 12 41 3 92 11 97
14 3 1 25 3 50 3 45 1 80 -17 80 -41 0 -7 4 -13 10 -13 5 0 7 -7 4 -15 -4 -8
-1 -21 5 -29 6 -7 8 -16 4 -19 -3 -4 -2 -7 3 -7 6 0 11 -10 11 -22 1 -13 5
-41 8 -63 4 -22 8 -58 10 -80 2 -22 5 -41 6 -42 1 -2 2 -7 3 -12 0 -5 4 -12 8
-16 4 -4 4 -13 1 -21 -3 -8 0 -14 5 -14 20 0 -9 -60 -36 -78 -40 -26 -77 -63
-74 -74 1 -5 -2 -7 -8 -3 -5 3 -10 1 -10 -5 0 -6 -5 -8 -10 -5 -6 3 -17 -1
-26 -9 -8 -9 -13 -16 -10 -16 3 0 -2 -8 -11 -18 -10 -11 -21 -17 -25 -15 -5 2
-8 -4 -8 -13 0 -10 -3 -15 -6 -11 -8 8 -33 -16 -27 -25 2 -5 -3 -8 -11 -8 -9
0 -16 -6 -16 -13 0 -7 -18 -23 -40 -36 -22 -12 -38 -25 -36 -29 2 -4 -2 -13
-10 -20 -8 -7 -14 -10 -14 -7 0 4 -7 0 -15 -9 -8 -8 -15 -20 -15 -26 0 -6 -5
-8 -10 -5 -6 3 -13 0 -16 -8 -3 -8 -15 -17 -26 -20 -13 -4 -17 -10 -12 -18 4
-8 3 -10 -4 -5 -7 4 -12 2 -12 -3 0 -6 -5 -11 -11 -11 -5 0 -7 6 -4 13 4 6 -3
0 -15 -15 -12 -16 -30 -28 -40 -28 -25 0 -100 76 -100 101 0 11 -4 17 -10 14
-5 -3 -10 -1 -10 5 0 6 -4 8 -10 5 -5 -3 -10 2 -10 11 0 10 -2 15 -6 12 -7 -7
-61 45 -56 55 2 4 -2 7 -7 7 -6 0 -11 6 -11 14 0 8 -3 16 -7 18 -12 5 -53 66
-53 78 0 6 -4 9 -9 6 -5 -3 -14 8 -21 24 -7 17 -16 30 -20 30 -4 0 -11 15 -14
33 -5 27 -11 33 -29 32 -22 -2 -61 31 -52 45 3 4 -7 8 -20 8 -14 0 -25 -4 -25
-9 0 -15 -132 -144 -144 -141 -6 2 -8 1 -4 -3 4 -4 2 -12 -3 -19 -39 -47 -49
-60 -49 -68 0 -4 -6 -7 -12 -6 -7 2 -12 -3 -10 -9 1 -7 -2 -13 -8 -13 -5 0
-10 -6 -10 -14 0 -8 -9 -18 -20 -21 -11 -4 -18 -10 -16 -14 3 -4 -4 -15 -15
-24 -10 -9 -19 -24 -19 -32 0 -9 -4 -14 -8 -11 -11 7 -11 2 -11 -129 0 -128 2
-165 9 -165 3 0 6 -24 7 -53 3 -84 9 -141 17 -159 5 -10 6 -23 3 -30 -2 -7 0
-21 5 -30 6 -13 5 -18 -4 -18 -9 0 -10 -3 -2 -8 16 -10 28 -92 28 -189 -1 -46
3 -83 8 -83 5 0 7 -4 4 -9 -3 -4 1 -33 9 -63 7 -30 15 -61 17 -69 2 -8 6 -16
10 -19 4 -3 10 -23 14 -45 3 -21 10 -48 14 -61 5 -12 6 -25 3 -28 -3 -3 0 -13
8 -23 12 -15 12 -16 -1 -8 -13 8 -13 6 -2 -8 8 -9 13 -26 11 -39 -1 -13 1 -30
5 -38 6 -15 14 -65 18 -117 1 -13 6 -23 11 -23 5 0 4 -7 -3 -15 -9 -10 -9 -15
-1 -15 6 0 10 -3 9 -7 -1 -5 5 -21 12 -38 7 -16 12 -38 12 -47 0 -10 4 -18 9
-18 6 0 8 -3 6 -8 -3 -4 3 -24 13 -45 10 -20 14 -34 8 -31 -7 5 -8 2 -2 -7 9
-15 15 -35 17 -61 1 -9 6 -16 12 -15 5 1 9 -6 7 -15 -2 -10 2 -18 7 -18 9 0
27 -40 22 -48 -1 -2 7 -12 18 -21 11 -10 18 -21 14 -25 -3 -3 0 -6 7 -6 7 0
10 -3 7 -7 -4 -3 -2 -12 5 -20 6 -7 8 -16 5 -19 -3 -4 0 -13 8 -21 8 -8 15
-23 15 -33 0 -10 5 -22 10 -25 6 -4 8 -10 5 -15 -3 -5 3 -13 12 -19 10 -6 14
-11 10 -11 -4 0 1 -10 12 -22 11 -11 18 -26 14 -31 -3 -6 -1 -7 5 -3 6 3 15
-8 22 -29 6 -19 18 -38 25 -42 7 -5 14 -11 14 -16 2 -22 15 -63 23 -68 5 -3
11 -16 13 -29 2 -13 10 -27 17 -32 7 -4 9 -8 4 -8 -5 0 0 -8 10 -18 10 -9 19
-23 19 -29 0 -7 3 -13 8 -13 4 0 20 -6 36 -14 21 -11 31 -12 40 -3 8 8 11 8
11 -1 0 -9 5 -10 15 -4 9 4 40 5 70 2 30 -3 55 -3 55 1 0 4 14 4 30 -1 17 -5
30 -6 30 -2 0 7 12 9 98 12 28 1 55 6 58 11 3 5 10 7 15 4 5 -4 9 -2 9 3 0 5
11 22 24 37 19 22 22 33 15 47 -6 12 -6 18 0 18 5 0 7 10 4 22 -3 13 -8 39
-10 58 -3 19 -9 40 -13 45 -4 6 -6 31 -5 57 1 26 -2 45 -6 43 -4 -3 -9 0 -11
6 -2 6 -15 12 -30 12 -14 1 -26 6 -25 12 1 5 -2 10 -8 10 -26 4 -63 25 -70 42
-11 23 -14 113 -5 113 4 0 7 30 7 67 0 84 12 193 22 193 4 0 7 16 6 35 -1 19
1 35 5 35 4 0 7 30 8 66 0 36 6 72 13 80 9 11 9 14 -1 14 -9 0 -10 3 -2 13 9
10 8 19 -3 34 -8 11 -12 23 -9 26 3 3 -4 8 -15 12 -11 3 -25 19 -32 35 -8 16
-17 26 -21 24 -4 -3 -8 2 -8 10 0 9 -7 16 -16 16 -9 0 -18 9 -21 20 -3 11 -12
20 -19 20 -8 0 -13 3 -13 8 4 21 -3 32 -18 32 -9 0 -14 3 -10 6 3 4 -1 13 -9
21 -8 8 -12 19 -9 24 4 5 2 9 -4 9 -6 0 -16 19 -23 43 -7 23 -18 47 -26 53 -8
5 -13 17 -11 25 1 7 -3 27 -9 42 -7 16 -12 33 -12 38 0 5 -4 9 -8 9 -17 0 -8
49 10 53 11 3 18 0 18 -9 0 -8 5 -14 10 -14 6 0 10 -6 10 -14 0 -7 10 -21 23
-30 12 -9 16 -14 9 -10 -18 8 4 -30 36 -64 12 -13 20 -28 17 -33 -4 -5 1 -9
10 -9 9 0 22 -13 28 -30 6 -16 15 -30 19 -30 5 0 22 -16 39 -35 17 -19 36 -32
42 -28 6 3 7 1 3 -5 -9 -15 18 -55 29 -44 5 4 5 2 1 -5 -3 -6 5 -23 18 -38 18
-19 32 -25 53 -22 15 2 29 9 29 15 1 7 3 15 4 20 1 4 2 11 1 15 -1 4 6 10 14
13 8 3 13 10 10 14 -2 4 16 28 40 54 25 25 42 46 39 46 -4 0 -1 6 5 13 6 8 8
17 4 21 -4 4 0 4 10 1 12 -5 20 0 28 19 7 14 16 23 20 20 5 -3 9 0 9 6 0 17
46 70 54 63 3 -4 6 1 6 9 0 9 7 18 15 22 8 3 15 12 15 19 0 8 11 19 25 25 14
6 25 16 25 21 0 5 9 7 21 4 14 -4 17 -9 10 -16 -6 -6 -11 -17 -11 -24 0 -7 -9
-22 -20 -33 -12 -12 -18 -25 -15 -30 4 -6 -1 -10 -9 -10 -14 0 -20 -12 -17
-32 0 -5 -3 -8 -9 -8 -6 0 -9 -3 -9 -7 1 -5 0 -11 -1 -15 -1 -5 -3 -11 -5 -15
-7 -26 -21 -51 -40 -68 -12 -12 -20 -26 -18 -32 2 -6 -4 -18 -13 -28 -27 -27
-56 -86 -50 -102 3 -8 2 -12 -2 -9 -5 3 -8 -31 -8 -74 -1 -44 2 -77 6 -75 3 2
6 -4 7 -13 1 -20 8 -48 20 -82 5 -14 9 -40 8 -57 -1 -18 3 -33 7 -33 5 0 7
-22 5 -50 -2 -27 0 -50 3 -50 4 0 6 -14 5 -30 -1 -17 1 -33 4 -35 9 -5 7 -48
-2 -62 -4 -7 -3 -14 2 -18 5 -3 8 -14 6 -23 -10 -52 -7 -90 7 -120 9 -18 12
-30 7 -27 -12 8 -7 -48 6 -57 6 -5 5 -8 -3 -8 -14 0 -14 -77 -1 -86 5 -2 8
-26 7 -53 0 -27 5 -58 11 -68 7 -14 7 -23 -1 -31 -7 -7 -8 -12 -2 -12 5 0 9
-16 9 -35 -1 -26 3 -35 14 -35 13 0 14 -2 2 -9 -8 -5 -11 -16 -8 -24 6 -17 47
-30 47 -15 0 7 4 7 13 0 7 -6 19 -7 26 -3 7 5 28 5 47 1 21 -5 34 -4 34 2 0 7
5 6 13 -1 8 -6 17 -8 20 -5 3 4 28 6 54 7 26 0 52 2 57 5 5 3 39 6 75 7 97 2
103 3 95 18 -6 9 -5 9 8 0 8 -7 18 -10 22 -6 4 4 27 8 53 9 25 1 48 6 52 11 3
5 16 8 29 7 12 -1 22 3 22 7 0 5 3 8 8 8 27 -5 31 3 27 62 -2 34 -7 65 -12 68
-4 3 -10 15 -11 26 -2 10 -10 28 -18 39 -8 11 -14 28 -14 38 0 10 -6 18 -12
18 -10 0 -10 2 0 9 11 7 11 11 -2 24 -9 8 -16 25 -16 36 0 12 -4 21 -10 21 -5
0 -10 7 -10 15 0 8 -5 15 -12 15 -6 0 -8 3 -5 7 4 3 -1 15 -10 26 -13 15 -14
18 -3 12 12 -6 12 -5 3 5 -12 13 -8 19 50 82 15 17 27 36 27 44 0 8 5 14 12
14 6 0 8 3 5 7 -4 3 2 13 13 20 11 8 18 18 15 23 -3 4 2 11 11 14 9 4 14 13
10 22 -3 8 -2 13 2 10 5 -3 16 4 25 15 9 10 14 19 10 19 -3 0 4 9 17 20 13 11
20 20 15 20 -4 0 -2 6 4 13 6 8 7 18 3 22 -4 5 -2 5 5 1 7 -3 14 2 18 14 3 11
11 20 17 20 5 0 8 7 4 15 -3 8 -2 14 2 12 4 -1 8 2 9 7 0 5 8 13 17 18 9 5 16
16 16 23 0 8 7 15 16 15 8 0 13 4 9 9 -3 5 -1 12 5 16 6 4 8 10 5 15 -3 5 0
12 6 16 8 5 10 2 5 -7 -4 -8 -1 -5 8 5 8 10 13 23 10 27 -3 5 0 9 5 9 6 0 11
7 11 15 0 8 5 15 10 15 6 0 10 7 10 15 0 8 4 15 9 15 5 0 11 9 14 20 9 33 9
34 26 47 9 7 13 13 9 13 -5 0 1 9 12 20 11 11 20 27 20 36 0 9 5 12 12 8 7 -5
9 -2 5 9 -3 8 1 21 8 27 8 7 12 16 9 21 -3 5 2 9 11 9 9 0 13 5 10 11 -4 6 2
17 14 25 12 9 19 19 16 24 -3 4 2 11 11 14 9 4 14 9 10 13 -3 4 4 18 16 31 13
14 16 21 8 17 -10 -5 -8 -1 4 13 11 12 16 22 13 22 -6 0 10 39 48 113 10 20
11 26 2 21 -8 -5 -7 -2 2 9 7 9 10 17 6 17 -4 0 -2 7 5 15 7 8 9 15 4 15 -4 0
-3 5 4 12 7 7 12 21 12 33 0 11 7 28 15 38 7 11 12 28 10 39 -3 12 -1 26 3 32
3 6 7 17 9 25 1 8 5 26 9 40 4 14 6 32 5 39 -1 6 2 12 7 12 5 0 8 18 7 40 -2
22 1 40 7 40 5 0 8 17 6 37 -2 22 2 38 10 41 8 2 9 9 2 23 -6 10 -7 19 -3 19
10 0 10 71 0 87 -4 6 -1 16 7 22 9 8 12 27 9 64 -6 77 -6 77 -15 77 -5 0 -4 8
1 19 6 10 7 21 4 25 -8 8 -13 32 -15 64 0 12 -3 22 -7 22 -3 0 -7 15 -8 32 -2
18 -7 34 -13 36 -5 2 -10 10 -10 17 0 8 -5 26 -12 42 -6 15 -11 31 -10 36 1 4
-2 7 -8 7 -5 0 -10 7 -10 15 0 8 -5 15 -11 15 -5 0 -7 5 -4 10 3 5 1 10 -4 10
-16 0 -51 32 -45 42 3 4 0 8 -6 8 -15 0 -70 55 -70 70 0 7 -2 11 -5 8 -3 -3
-26 14 -50 39 -25 24 -49 41 -55 38 -6 -4 -9 -3 -8 2 2 5 -8 20 -21 33 -13 14
-21 19 -17 13 5 -9 2 -11 -8 -7 -9 3 -16 13 -16 21 0 8 -4 11 -10 8 -5 -3 -10
-2 -10 3 0 5 -16 17 -35 28 -19 10 -35 22 -35 27 0 4 -4 6 -10 2 -5 -3 -18 3
-28 13 -10 10 -24 16 -30 14 -7 -2 -12 1 -12 6 0 5 -20 16 -45 23 -25 7 -45
17 -45 22 0 5 -16 7 -35 5 -19 -2 -35 0 -35 5 0 4 -4 5 -10 2 -5 -3 -10 -1
-10 5 0 7 -7 10 -15 6 -8 -3 -15 -1 -15 4 0 11 -48 26 -67 22 -7 -2 -13 1 -13
5 0 9 -23 14 -82 16 -20 1 -35 4 -34 7 4 8 -32 39 -38 33 -3 -4 -6 1 -6 10 0
9 -8 21 -17 26 -10 6 -14 11 -10 11 4 0 2 6 -5 14 -7 8 -16 12 -21 9 -4 -2 -7
-1 -6 4 3 14 -31 83 -42 83 -5 0 -9 6 -7 13 3 14 -30 79 -46 89 -6 4 -7 8 -2
8 5 0 -3 12 -17 26 -15 15 -25 30 -22 34 3 4 -2 10 -10 14 -8 3 -15 13 -15 21
0 9 -4 13 -10 10 -5 -3 -10 -1 -10 5 0 16 -26 40 -34 32 -4 -3 -4 1 -1 10 4 9
0 18 -9 21 -9 4 -16 13 -16 22 0 8 -5 15 -10 15 -6 0 -9 4 -8 8 2 4 -14 25
-34 46 -21 21 -35 42 -33 46 3 4 -9 13 -26 20 -17 7 -37 19 -44 26 -7 7 -19
15 -26 16 -14 3 -29 13 -56 37 -50 46 -150 73 -175 47z"/>
<path d="M850 3161 c0 -10 18 -36 40 -58 21 -22 36 -44 32 -48 -4 -3 -2 -6 3
-5 6 1 12 2 15 0 3 -1 15 -3 27 -6 12 -2 26 -5 30 -6 4 -1 23 6 41 15 34 19
52 16 52 -9 0 -8 5 -14 11 -14 5 0 7 -4 4 -10 -3 -5 1 -10 9 -10 9 0 16 -4 16
-8 0 -7 51 -9 75 -2 18 4 30 7 43 8 7 1 10 7 7 12 -4 6 -15 8 -26 5 -11 -4
-19 -2 -19 5 0 6 -5 8 -11 4 -6 -3 -15 -1 -19 6 -10 16 -2 42 10 35 5 -3 11
-1 15 4 3 6 -36 9 -104 8 -60 -1 -107 1 -104 6 2 4 -3 10 -11 13 -9 3 -13 10
-10 15 5 9 -38 29 -68 32 -10 1 -18 4 -18 8 0 4 -9 9 -20 12 -14 4 -20 0 -20
-12z"/>
<path d="M1590 3109 c0 -4 -9 -6 -20 -4 -11 2 -22 0 -25 -5 -5 -8 -12 -8 -50
0 -5 1 -23 2 -39 1 -24 -1 -27 -3 -16 -16 7 -8 9 -15 5 -15 -5 0 -2 -8 6 -17
8 -10 21 -30 28 -45 8 -15 18 -25 22 -22 4 2 10 1 13 -4 9 -15 115 -12 130 3
7 8 16 12 20 10 3 -3 4 -2 1 2 -3 3 0 12 6 20 6 7 10 13 8 14 -2 0 -13 2 -23
4 -21 4 -39 26 -28 35 17 12 8 38 -14 43 -13 2 -24 1 -24 -4z"/>
<path d="M980 2920 c8 -5 22 -10 32 -10 16 0 19 -22 5 -36 -16 -16 -2 -20 86
-23 136 -4 151 -6 165 -14 7 -5 12 -3 12 5 0 10 2 10 9 -1 5 -8 20 -15 33 -16
12 -1 36 -5 51 -10 15 -4 31 -5 34 -1 9 9 -49 56 -70 56 -10 0 -16 4 -13 8 2
4 -5 9 -17 10 -25 2 -61 9 -64 12 -2 2 -7 4 -13 5 -5 1 -11 3 -12 5 -5 4 -74
10 -163 15 -62 4 -85 2 -75 -5z"/>
<path d="M3523 2473 c-23 -2 -47 -11 -53 -19 -7 -7 -18 -14 -26 -14 -17 0 -24
-26 -22 -79 1 -23 -3 -46 -8 -49 -5 -4 -9 -18 -8 -32 1 -14 -3 -28 -10 -32 -7
-5 -6 -8 4 -8 11 0 12 -2 3 -8 -11 -7 -19 -37 -25 -89 -1 -7 -5 -13 -10 -13
-5 0 -6 -5 -3 -10 4 -6 1 -17 -5 -25 -7 -8 -9 -15 -5 -15 4 0 3 -6 -2 -12 -6
-7 -9 -25 -8 -40 1 -15 -2 -25 -7 -22 -4 3 -9 -6 -9 -20 -2 -29 -2 -32 -13
-61 -20 -51 -26 -72 -30 -95 -3 -14 -5 -26 -7 -27 -1 -2 -2 -6 -3 -10 -7 -30
-19 -53 -27 -53 -6 0 -7 -5 -4 -10 3 -6 -1 -17 -9 -26 -9 -9 -14 -20 -10 -25
3 -5 -2 -12 -10 -15 -9 -3 -14 -10 -11 -14 3 -5 1 -11 -5 -15 -6 -4 -8 -11 -5
-16 4 -5 -2 -9 -12 -9 -12 0 -14 -3 -6 -8 8 -5 9 -13 3 -22 -6 -8 -10 -10 -10
-5 -1 6 -10 -7 -20 -29 -11 -21 -17 -43 -13 -49 3 -5 2 -7 -4 -4 -6 4 -19 -9
-29 -28 -10 -19 -22 -35 -27 -35 -4 0 -5 -4 -2 -10 3 -5 2 -10 -4 -10 -5 0
-16 -11 -23 -24 -26 -47 -91 -136 -99 -136 -5 0 -9 -10 -9 -22 0 -19 -2 -20
-10 -8 -8 13 -10 13 -10 -2 0 -9 -8 -22 -17 -27 -10 -6 -14 -11 -10 -11 5 0 1
-7 -7 -16 -9 -8 -13 -20 -10 -26 4 -6 2 -8 -4 -4 -10 6 -28 -30 -24 -46 1 -5
-2 -8 -6 -8 -5 0 -17 -7 -28 -16 -10 -8 -12 -13 -4 -9 13 6 13 5 0 -7 -31 -27
-38 -52 -21 -66 12 -10 12 -12 1 -6 -13 7 -13 6 0 -10 8 -11 16 -36 17 -57 1
-21 7 -47 13 -58 8 -16 8 -21 -2 -21 -9 0 -9 -3 0 -12 7 -7 12 -20 12 -30 0
-10 4 -18 9 -18 5 0 9 -12 9 -26 0 -15 6 -30 13 -35 8 -5 11 -9 7 -9 -4 0 -3
-11 2 -24 7 -19 5 -26 -7 -30 -9 -4 -13 -9 -9 -13 3 -3 -3 -12 -14 -20 -11 -8
-20 -20 -20 -28 0 -7 -9 -17 -20 -20 -11 -4 -18 -11 -15 -16 4 -5 -4 -13 -17
-18 -13 -6 -19 -10 -15 -10 4 -1 -2 -11 -15 -23 -25 -25 -34 -48 -18 -48 5 0
10 -9 10 -20 0 -16 6 -19 35 -18 19 1 35 6 35 12 0 6 4 5 9 -2 8 -13 45 -13
66 -1 6 4 102 6 215 5 148 -1 209 2 218 11 7 7 19 10 26 7 11 -4 14 8 15 57 0
34 4 65 8 68 10 8 10 32 0 49 -5 6 -4 12 0 12 12 0 10 64 -2 72 -7 5 -6 8 0 8
6 0 11 13 10 29 0 16 -3 27 -7 24 -5 -2 -8 11 -8 29 0 18 -7 56 -16 83 -20 66
-23 78 -25 131 -2 24 -6 44 -11 44 -4 0 -8 7 -8 15 0 7 -8 19 -17 24 -10 6
-14 11 -10 11 9 0 -49 79 -68 92 -5 4 -6 8 -2 8 5 0 1 7 -7 16 -21 20 -21 64
0 64 8 0 12 5 9 10 -3 6 -1 10 4 10 6 0 11 -5 11 -11 0 -6 9 -8 20 -4 11 4 20
2 20 -4 0 -6 7 -11 15 -11 8 0 15 -5 15 -11 0 -5 5 -7 10 -4 6 3 10 1 10 -4 0
-6 6 -11 13 -11 15 0 48 -36 40 -44 -4 -3 -1 -6 6 -6 7 0 9 -4 6 -10 -3 -5 1
-10 10 -10 9 0 15 -6 12 -12 -6 -17 12 -50 23 -43 5 3 7 -3 5 -14 -2 -11 3
-22 11 -25 9 -3 13 -10 10 -15 -4 -5 -1 -11 4 -13 6 -2 12 -10 14 -18 8 -43
19 -70 28 -70 6 0 8 -7 4 -15 -3 -8 0 -15 7 -15 7 0 13 -12 14 -26 0 -15 7
-30 15 -35 7 -5 10 -9 6 -9 -4 0 -3 -12 3 -27 10 -26 17 -58 21 -90 1 -7 5
-13 10 -13 4 0 8 -12 8 -26 0 -14 4 -23 9 -20 5 4 7 -2 4 -12 -2 -11 3 -26 12
-36 12 -12 13 -16 3 -16 -9 0 -9 -3 -2 -8 6 -4 17 -25 24 -47 7 -22 17 -43 22
-46 5 -3 2 -13 -6 -22 -9 -8 -16 -18 -16 -22 0 -10 -60 -68 -61 -58 0 4 -4 -2
-10 -15 -5 -13 -12 -21 -17 -18 -12 7 -41 -50 -32 -64 4 -6 10 -11 14 -11 19
3 27 0 22 -8 -3 -4 3 -16 13 -25 16 -15 20 -15 33 -2 12 11 18 12 27 3 8 -8
11 -8 11 1 0 10 5 10 20 2 11 -6 20 -7 20 -2 0 12 43 9 52 -3 3 -6 33 -9 65
-8 79 4 83 5 83 15 0 5 9 4 20 -2 14 -8 20 -8 20 0 0 8 6 8 20 0 14 -8 20 -8
20 0 0 8 6 8 20 0 15 -8 20 -8 20 1 0 8 4 8 13 1 8 -7 18 -7 27 -2 8 5 19 6
24 2 6 -3 23 -5 39 -4 15 1 36 -2 47 -8 13 -7 21 -7 25 0 4 6 9 8 13 6 4 -2
13 2 20 10 10 11 10 14 0 14 -8 0 -9 3 -3 8 12 8 17 32 18 89 1 24 5 43 9 43
4 0 5 9 3 20 -2 11 1 20 8 20 8 0 8 3 0 11 -7 7 -8 22 -4 38 5 14 6 32 3 40
-2 8 -1 11 4 8 13 -7 11 96 -1 105 -6 5 -4 8 5 8 13 1 13 2 0 13 -8 7 -15 19
-15 27 0 8 -6 14 -13 12 -6 -1 -12 3 -12 8 0 15 -58 70 -73 70 -8 0 -8 3 1 9
10 6 8 10 -8 14 -12 3 -19 10 -16 16 4 5 -4 17 -16 25 -12 9 -18 16 -13 16 5
0 -3 11 -18 25 -15 14 -27 29 -27 34 0 15 -48 60 -56 53 -4 -4 -4 -1 0 6 5 8
-1 22 -16 35 -14 13 -23 33 -22 49 1 15 -3 25 -8 22 -10 -7 -5 61 7 90 7 15 5
17 -6 11 -11 -7 -12 -6 -2 7 7 8 9 19 5 23 -4 5 -1 5 6 1 7 -4 12 -2 13 6 0 7
3 22 5 33 3 11 6 26 6 33 1 6 5 12 10 12 5 0 6 5 3 10 -3 6 -3 10 2 10 4 0 9
14 10 32 1 17 6 34 10 37 8 6 13 27 16 64 1 9 6 17 11 17 5 0 6 3 3 7 -4 3 -2
11 3 18 5 6 11 28 12 47 2 20 6 34 11 31 4 -2 7 3 7 11 0 8 -5 18 -10 21 -8 5
-7 11 1 21 8 10 9 18 0 27 -6 8 -7 17 -3 21 10 11 10 166 0 172 -5 3 -5 11 0
17 12 17 13 57 0 57 -5 0 -8 6 -5 14 3 8 2 16 -4 18 -5 2 -12 16 -15 32 -3 16
-6 34 -7 40 -1 6 -8 17 -15 25 -7 7 -11 20 -8 27 3 8 1 14 -4 14 -6 0 -10 7
-10 15 0 9 -6 18 -14 21 -8 3 -16 14 -19 25 -3 10 -13 19 -22 19 -9 0 -13 5
-10 11 8 13 -23 49 -42 49 -8 0 -12 4 -8 9 3 6 -5 15 -17 22 -13 7 -31 21 -40
32 -10 11 -18 16 -18 11 0 -5 -5 -1 -11 9 -5 9 -16 17 -24 17 -7 0 -15 4 -17
9 -1 5 -10 11 -18 13 -8 2 -17 5 -20 8 -28 27 -61 52 -55 40 5 -9 -1 -7 -15 5
-13 11 -20 15 -17 8 5 -8 1 -8 -17 0 -13 7 -22 15 -20 19 3 5 4 7 2 6 -2 -1
-22 -3 -45 -5z"/>
</g>
</svg>
