<svg version="1" xmlns="http://www.w3.org/2000/svg" width="981.333" height="981.333" viewBox="0 0 736.000000 736.000000"><path d="M219.4 18.8c-4.7 1.6-9.4 7-13.4 15.5-2.2 4.8-4 8.8-4 9.1 0 .2-1 2.5-2.2 5.2-1.2 2.7-2.1 5.2-2 5.6.1.5-.2.8-.7.8-.5 0-1.2 1.1-1.5 2.5-.3 1.3-2 4.4-3.6 6.9-1.7 2.4-3 4.7-3 5 0 .6-16.7 26.2-18.5 28.3-.5.7-2.6 3.6-4.5 6.4-3.3 4.8-10.6 14.2-25.7 32.8-3.4 4.2-7.1 9.4-8.2 11.7-2.2 4.3-2.8 10.4-1.2 10.4.6 0 3 1.3 5.4 3 2.5 1.6 4.8 3 5.1 3 .6 0 13.6 9.8 14.6 11 .3.3 1.9 1.6 3.7 2.8l3.2 2.2 10.8-7.1c11.6-7.6 30.1-17 42.3-21.4 4.1-1.4 7.6-2.6 7.8-2.6.1.1.3.1.5 0 .3-.1 4.5-.6 9.2-1.2 2.2-.3 6.3-.8 9-1.2 11.6-1.5 11.8-1.5 15.2 2.4 1.8 2 3.4 3.9 3.4 4.3.3 2 .5 2.4 1.1 3.4 1.5 2.3 7 24.9 8.4 34.4.2 1.9.6 4.4.8 5.5 1.5 8.1 2.7 14.4 3.1 16.5.3 1.3.7 4.1 1 6.1.3 2 .9 4.9 1.3 6.5.5 1.6.7 4.9.6 7.4-.3 4.7-1 5.5-13.5 16.5-12 10.6-20.9 18.5-26.8 24-3.5 3.3-8.3 7.7-10.5 9.8-2.3 2-5.2 4.7-6.6 6-4.7 4.4-22.5 19.3-26.5 22.2-2.2 1.6-4.5 3.5-5.2 4.1-.7.7-3.3 2.2-5.8 3.4l-4.5 2.2-3.7-3c-4.2-3.3-16.9-16.4-27.8-28.6-3.8-4.4-7.5-8.4-8-9-7.6-8.3-26.5-35.9-28.5-41.7-2.1-5.8-4.1-6.4-9.1-2.7-6.1 4.4-6.1 4.4-15.7 13.9-9.1 9-11.8 12.1-26.2 29.8-1.9 2.4-5 5.9-6.8 7.9-1.7 1.9-3.2 3.8-3.2 4.1 0 .3-1.5 2.2-3.3 4.1l-3.4 3.5.4 17.5c.3 19.2.9 33.9 1.7 47 .7 9.2.9 11.1 2.6 24 .7 4.7 1.3 9.8 1.5 11.5.2 1.6.4 3 .5 3 .1 0 .3.9.4 2 .2 1.1.6 4.2 1 7 1.3 9 1.6 11.9 2.1 20.5 1.2 17.1 2.1 22.6 6.6 40.5 2.2 8.8 4.2 16.8 4.4 17.8.2 1 .7 2.8 1.1 3.9.3 1.1.7 3 .9 4.1.1 1.2 1 5.8 1.9 10.2 2.5 12 3.5 17.6 4 21.5.3 2 1.1 6.5 2 10.2.8 3.6 1.7 7.7 2 8.9 1.2 6 4 15.5 7.2 24.5 1.9 5.5 3.6 10.6 3.8 11.4.3.8.5 1.6.6 1.7.2.2.3.6.5 1 .1.5.7 2.1 1.4 3.8 4.3 10.9 7.3 17.5 12.7 28.5 3.4 6.9 8.3 17 11 22.5 2.6 5.5 5 10.2 5.4 10.5.4.3 2 2.7 3.5 5.5 1.6 2.7 3.3 5.2 3.7 5.3.4.2.8 1.1.8 2.1 0 .9.4 2.1.9 2.7.5.5 4.9 8.8 9.8 18.4 15.1 29.8 14.4 29.4 44.8 29.4 28.7 0 47.2-2.5 50-6.8 1.7-2.5 1.3-8.8-1-21.4-2.2-11.4-2.4-12.6-3.1-19.6-.6-6.6-1.7-7.9-9.9-12.3-2.7-1.5-5.2-2.7-5.5-2.8-2.2-.4-9.2-5-10.9-7.1-2-2.5-2.1-3.6-1.6-17.8.8-25.4 2.2-39.4 5-51.6.1-.3.5-3 .9-6 .5-3 1-6.4 1.3-7.5.2-1.1.5-4.3.8-7 .2-2.8.7-7.8 1-11.2 1.3-11.7 1.2-15.7-.4-18.5-.9-1.6-1.9-2.8-2.3-2.8-.5 0-.8-.5-.8-1 0-.6-.8-1.8-1.7-2.8-1-1-4.5-4.9-7.8-8.7-3.3-3.8-6.9-7.9-8-9.2-5.4-6-7-8.1-10.8-13.7-2.2-3.3-5.6-9.6-7.4-14.1-1.8-4.4-4.2-9.8-5.3-12-1.9-3.9-4.1-9.5-4.2-10.5 0-.3-.3-1-.7-1.5-.9-1.1-4.4-12.6-5.7-18.5-.4-1.9-1-4.2-1.2-5-.2-.8-.6-3.7-.9-6.3-.7-6.4.8-7.9 4.3-4.6 3.2 2.9 13.4 16.5 13.4 17.8 0 .5.4 1.1.8 1.3.5.1 2.8 3.2 5.2 6.8 7.4 11 20.3 28 29.2 38.6 4.7 5.6 10 12.3 11.8 15 1.9 2.7 3.6 5.1 4 5.4.3.3 1.6 2 2.9 3.7 1.2 1.8 2.5 3.3 2.9 3.3 1 0 6.2-8.8 6.2-10.5 0-.8.4-1.5.9-1.5s1.2-.8 1.5-1.8c.3-.9 1.6-2.9 2.8-4.4 1.3-1.4 3-3.6 3.8-4.9.8-1.2 3.1-4.1 5-6.4 1.9-2.2 5.5-6.5 8-9.5s5.2-6.1 6-7c.8-.9 3.3-3.8 5.4-6.4 6.8-8.3 23.5-24.3 29.8-28.6 7.8-5.2 8.9-4.1 5.1 5-.3.8-.7 1.9-.8 2.5-.4 1.4-6.1 11.2-12.2 21-2.8 4.4-5.1 8.4-5.1 9-.2 1.3-3.5 8.7-4.5 10-.4.5-2.8 4.4-5.3 8.5-5.6 9.4-6.8 11.4-7.4 12-.3.3-1.8 3.2-3.4 6.4-2.4 5-2.8 7.2-2.9 14.5-.1 7.9.6 16.6 1.7 21.6.2 1.1 1.2 5.1 2.1 9 2.4 9.9 2.8 12.9 4.1 26.5.7 7.6 1.2 12.5 1.4 12.5.2 0 1.1 17.1 1.3 23.7.1 3.2.4 5.8.7 5.8.3 0 .6 5.3.8 11.8.1 6.4.5 13.9.7 16.7.3 2.7.8 7.6 1 10.7.2 3.2.6 7.9.9 10.5.5 4.3 1.4 12.7 2.1 19.3.8 7.5 3.3 22.3 4.6 27.3.7 2.7 1.8 4.1 3.6 4.8 2.5.9 22 1.2 32.8.4 20.4-1.4 24.3-1.7 27-2 1.7-.2 5.5-.7 8.5-1 3.1-.3 6.7-.7 8-1 9.9-1.9 16.9-3.1 23-4 11.7-1.6 16.8-4 18.8-9 1.2-2.8.9-4-3.3-14-2.5-6.1-5.2-12.4-5.9-14-.8-1.7-1.7-4.1-2.1-5.5-.5-1.4-3.7-8.6-7.2-16-8.3-17.3-8.1-19.1 2.2-31.5 1.3-1.7 2.8-3.5 3.3-4 .5-.6 1.7-2.4 2.8-4 1-1.7 2.1-3.2 2.4-3.5.4-.3 2.2-2.8 4-5.5 3-4.4 8.5-12.1 10.8-15 .4-.6 2.5-3.7 4.7-7s4.2-6.2 4.5-6.5c.7-.6 5-6.6 6.5-9.1 2.2-3.5 25.5-38.5 27-40.4.8-1 1.5-2.3 1.5-2.8 0-.4 1.1-2.3 2.4-4 2.7-3.6 22.4-36.3 26.9-44.7 1.6-3 3.5-6.2 4.1-7 3-4 16.1-34.9 18-42.5.2-.6.6-1.9 1-3 .5-1.1.9-2.5 1.1-3 .1-.6.3-1.2.4-1.5 2.6-8.6 8.8-33.1 10.5-42 .2-1.4 1-5 1.6-8 1.6-8.1 1.9-10 2.4-15 .3-2.5.8-5.6 1.1-7 1-4.8 2.3-33 1.5-33-.3 0-.6-3.5-.7-7.8-.1-8.5-.9-14.7-2.5-20.7-.5-2.2-1.2-5.1-1.5-6.4-1.5-8.2-9.8-27.7-15.3-35.6-3.4-5-25.5-27.4-33.5-34-2.7-2.2-6.4-5.4-8.4-7-2-1.7-4-3.3-4.6-3.7-.5-.4-2.3-1.8-4-3.1-16.8-13.3-48.1-29.6-57.1-29.7-1.1 0-2.4-.3-2.8-.7-.3-.4-1.4-.8-2.4-1-.9-.1-4.4-1.2-7.7-2.3-3.3-1.2-12.7-3.9-21-6.1-14.5-3.8-15.1-4.1-18.7-8.2-4.6-5.1-12.8-17.1-12.8-18.6 0-.6-.5-1.1-1.1-1.1-.5 0-.8-.4-.4-.9.3-.5.1-1.2-.3-1.5-.5-.3-2.5-3.7-4.5-7.5-4.8-9.4-5.9-11.1-7.9-13.5-1-1.1-1.8-2.5-1.8-3.2 0-.7-.4-1.4-.8-1.6-.4-.2-2.3-2.6-4.2-5.3-1.9-2.8-3.7-5.2-4-5.5-1.9-1.8-7-9-7-9.8 0-.6-.3-1.2-.8-1.4-.4-.2-2.3-2.3-4.2-4.8-1.9-2.5-4.5-5.6-5.7-7-1.3-1.4-2.3-2.8-2.3-3.1 0-.3-1-1.7-2.2-3.1-1.3-1.3-4.5-5-7.1-8.1-4.9-5.6-15.6-13.3-33.7-24.2-8.1-4.8-10.3-5.7-15.5-6-3.3-.2-7-.1-8.1.3z"/><path d="M105.7 198.7c-1.3 2.1 2.9 7.8 7.3 10 3.8 1.9 5.1 2.1 8.2 1.3 2.1-.6 4-1.6 4.4-2.2.7-1.1-4.2-5.8-6.1-5.8-.5 0-2.3-.7-3.8-1.5-3.7-1.9-9.3-2.9-10-1.8zM219.7 209.6c-.1.2-2.1.4-4.4.5-2.2.2-4.9.9-5.8 1.6-1.5 1-1.6 1.6-.6 4.2 1.7 3.9 6.7 5.9 17 6.6 5.7.4 6 .3 10.4-3.5 4.5-4 6.3-7.5 4.5-8.6-.9-.6-20.6-1.3-21.1-.8zM139.6 212.9c-.6 1 2.6 2.5 8.3 4.1 3.1.8 5.7.8 10.2-.1 6.4-1.3 6.8-1.7 2.3-2.5-1.5-.3-3.1-.7-3.6-1-1.5-.9-16.7-1.4-17.2-.5zM126.3 240.1c-2.3.8-2.3 3.5 0 3.7.7 0 8.4.3 17.1.6 8.7.4 17.1.8 18.5 1 1.4.3 4.9.8 7.6 1.2 2.8.3 5.9.9 7 1.1 1.1.3 3.4.6 5 .9 1.7.2 3.6.6 4.3.9.6.2 1.2 0 1.2-.5 0-1.3-11.1-4.2-26.5-6.9-3.3-.6-7.8-1.3-10-1.7-6-1.1-21.7-1.3-24.2-.3zM565.3 320.5c-3.7 1.6-4.4 3.4-5.8 17-.8 6.8-1.2 9.9-1.9 12.5-.3 1.4-.8 3.6-1 5-.3 1.4-1.2 5.4-2.1 9-.9 3.6-1.8 7.4-2.1 8.5-.2 1.1-2.2 8.7-4.5 17-2.2 8.2-4.2 15.7-4.4 16.5-4.3 16.1-7.6 26.1-11.9 36.3-6.1 14.1-9.1 20.3-10.6 22.2-.7.8-.9 1.5-.5 1.5.3 0-.2 1.5-1.3 3.2-1.1 1.8-3.1 5.3-4.4 7.8-4.3 7.7-6.4 11.2-12.1 20.3-3.1 4.9-5.9 9.7-6.2 10.8-.4 1-1 1.9-1.5 1.9-.4 0-2.2 2.2-3.8 4.8-1.6 2.6-3.6 5.4-4.3 6.2-.8.8-2.6 3.1-3.9 5-1.3 1.9-5.6 7.6-9.5 12.6-3.8 5.1-7.7 10.2-8.5 11.4-.8 1.2-2.1 2.8-2.7 3.6-.7.7-1.3 1.5-1.3 1.9 0 .3-1.1 2.1-2.5 3.9-1.4 1.8-2.5 3.6-2.5 4 0 .4-1.5 2.6-3.3 4.9-4.7 5.9-7.4 10.9-7.1 13.2.6 5.1 6 27.3 9.6 40 2.2 7.7 4.2 15.3 4.5 17 .3 1.6.7 3.2.9 3.4.5.5-2.5 6.1-5 9.3-1.2 1.4-3.1 3.9-4.3 5.5-1.2 1.5-5.4 6.2-9.2 10.3-7.5 8-9.1 10.8-7 12.1.7.4 6.1.6 11.9.3 5.8-.2 17.3-.6 25.5-.9 27.3-.8 61.3-2.3 63.9-2.8 1.9-.3 4.4-5.1 5-9.7 1.9-13.3 2.5-35.1 1.3-44.8-1.4-10.6-1.7-12.6-3.7-21.2-.6-2.5-1.3-5.6-1.5-7-.3-1.4-1-3.9-1.5-5.5-.5-1.7-1.2-5.5-1.5-8.5-.7-6.6-6.7-19.2-12.5-26.5-2.2-2.8-4.3-5.8-4.6-6.8-.4-.9-1-1.7-1.4-1.7-.8 0-6.3-8.4-6.2-9.7 0-.4-.4-1.3-.9-1.9-2.2-2.7 6.3-6.8 11.9-5.8 12.7 2.2 27.3 13.6 33.6 26.3 1.8 3.6 5.1 10 7.3 14.1 3.5 6.5 6.1 12.1 11.8 25.5 4.8 11.2 6.9 17.7 8.2 25 .3 1.6 1 3.6 1.6 4.3.5.7 2.5 5.8 4.4 11.5 1.8 5.6 3.8 11.1 4.3 12.2 2 4.4 6.8 19.2 7.4 23 .8 4.6 1.9 2.9-13.2 19.4-11.2 12.2-11.9 13.1-10.1 14.2.8.5 3.2.9 5.4 1 2.2 0 6 .3 8.5.7 2.5.3 13.7.5 25 .4 75-.7 69.8-.5 71.4-2.7.8-1.1 1.8-3.6 2.2-5.5.4-1.9.8-3.7.9-4 .2-.9 1.8-12.5 2.1-15.5.1-1.7.5-4.8.8-7 .3-2.2.8-6.1 1.1-8.7.6-5.8 1.4-11.4 2.2-15.3.3-1.7.6-5.6.6-8.7-.1-4.8-.7-6.5-3.7-11-1.9-2.9-4.8-6.7-6.3-8.4-13.9-15.1-31-36.1-39-47.9-8.7-12.7-8.4-23.1 1.5-54.5 1.7-5.2 5.4-17.2 8.4-26.5l5.4-17-.1-31.7c-.1-21.7-.4-32-1.2-33-.6-.7-1.1-1.5-1.1-1.8-.1-3-10.6-26.4-14.3-31.9-6.1-9-29.8-32.1-32.9-32.1-.5 0-1-.4-1-.8s-2.6-2.3-5.7-4.2c-3.2-1.9-6-3.7-6.3-4-1.2-1.2-18.3-10-19.7-10.1-.5-.1-1.5-.5-2.4-1-3-1.6-9.4-1.8-12.6-.4z"/></svg>