<?xml version="1.0" standalone="no"?>
<!DOCTYPE svg PUBLIC "-//W3C//DTD SVG 20010904//EN"
 "http://www.w3.org/TR/2001/REC-SVG-20010904/DTD/svg10.dtd">
<svg version="1.0" xmlns="http://www.w3.org/2000/svg"
 width="563.000000pt" height="545.000000pt" viewBox="0 0 563.000000 545.000000"
 preserveAspectRatio="xMidYMid meet">

<g transform="translate(0.000000,545.000000) scale(0.100000,-0.100000)"
fill="#000000" stroke="none">
<path d="M1770 5303 c-41 -28 -57 -54 -91 -138 -18 -44 -47 -110 -65 -147 -47
-94 -244 -386 -317 -470 -145 -165 -184 -231 -157 -264 7 -8 31 -23 54 -33 22
-10 70 -44 105 -75 36 -31 70 -56 76 -56 7 0 44 24 84 53 59 43 167 99 286
147 53 22 96 31 196 42 l109 12 26 -25 c32 -33 65 -144 93 -315 12 -71 28
-160 36 -199 16 -75 19 -114 9 -140 -4 -8 -52 -54 -108 -102 -55 -47 -172
-152 -258 -233 -147 -139 -325 -280 -354 -280 -7 0 -27 12 -45 27 -55 47 -285
300 -325 359 -109 158 -134 198 -134 208 0 6 -7 22 -16 34 -15 22 -17 23 -42
6 -63 -41 -170 -146 -253 -249 -49 -60 -111 -137 -140 -170 l-51 -60 5 -230
c5 -222 12 -303 42 -505 21 -137 24 -171 34 -305 7 -92 19 -153 50 -260 22
-77 56 -233 75 -346 29 -171 45 -238 96 -390 38 -112 83 -223 115 -284 30 -55
70 -137 89 -183 20 -45 49 -99 65 -120 16 -20 66 -112 110 -203 103 -209 117
-227 196 -239 121 -20 430 -1 503 30 29 12 29 62 2 195 -11 53 -20 110 -20
125 0 49 -10 59 -94 100 -122 58 -120 54 -112 212 9 176 25 323 37 355 10 26
39 278 39 339 0 28 -15 50 -102 147 -125 138 -172 205 -199 283 -11 33 -26 68
-33 79 -41 64 -110 307 -98 343 13 41 50 -1 202 -226 57 -85 134 -186 170
-225 36 -40 90 -107 119 -150 30 -42 57 -77 62 -77 5 0 23 29 40 65 19 40 67
107 122 172 51 58 105 122 121 142 101 124 259 262 278 243 14 -14 -44 -142
-89 -199 -18 -23 -46 -74 -62 -113 -16 -40 -57 -113 -90 -163 -76 -116 -81
-131 -81 -225 1 -79 6 -113 34 -217 19 -73 43 -325 56 -601 11 -236 54 -588
76 -621 14 -22 21 -23 132 -23 142 0 436 26 513 46 31 8 69 14 85 14 15 0 54
7 87 17 50 14 61 21 72 47 7 17 10 36 6 41 -5 6 -34 75 -66 155 -32 80 -73
173 -92 208 -47 91 -45 103 31 197 36 44 92 123 261 365 182 262 335 506 480
762 102 182 183 429 245 752 65 345 45 606 -65 833 -39 80 -59 106 -157 205
-231 233 -489 405 -670 447 -46 11 -113 31 -149 45 -36 13 -94 30 -128 36 -34
6 -74 16 -87 22 -33 15 -113 126 -165 230 -52 103 -70 131 -232 346 -72 95
-149 188 -171 206 -51 41 -244 162 -280 176 -41 15 -99 12 -126 -7z"/>
<path d="M955 3990 c-10 -17 15 -59 44 -75 37 -19 70 -19 95 0 23 17 24 16
-34 45 -57 29 -98 41 -105 30z"/>
<path d="M1740 3901 c-28 -5 -34 -10 -32 -26 2 -11 12 -28 23 -37 20 -17 107
-33 149 -26 27 4 85 71 76 87 -8 12 -155 13 -216 2z"/>
<path d="M1200 3882 c0 -5 22 -16 49 -25 39 -13 57 -13 92 -4 l44 11 -40 12
c-46 14 -145 18 -145 6z"/>
<path d="M1101 3681 c-34 -22 4 -31 127 -31 87 0 158 -6 226 -20 55 -11 101
-18 104 -15 9 8 -64 28 -212 56 -106 20 -221 25 -245 10z"/>
<path d="M4325 3084 c-15 -11 -21 -32 -26 -97 -4 -45 -16 -122 -28 -172 -29
-120 -83 -328 -101 -385 -4 -14 -18 -61 -30 -105 -37 -132 -158 -382 -262
-538 -21 -32 -38 -60 -38 -63 0 -5 -93 -133 -175 -239 -76 -99 -124 -166 -134
-192 -6 -11 -14 -24 -20 -28 -6 -3 -22 -26 -36 -49 -24 -42 -25 -46 -11 -82 7
-22 19 -73 26 -114 6 -41 28 -122 47 -179 22 -67 32 -112 28 -128 -7 -31 -50
-87 -132 -175 -88 -93 -86 -102 25 -94 48 3 215 10 372 14 157 5 293 12 302
16 25 11 37 64 44 206 8 142 -4 252 -41 396 -14 52 -25 107 -25 122 0 41 -51
139 -110 212 -53 66 -80 110 -80 130 0 6 15 17 33 25 43 18 103 4 173 -40 51
-33 124 -109 124 -130 0 -6 16 -38 36 -71 62 -100 174 -371 174 -419 0 -13 4
-26 9 -29 5 -3 12 -18 16 -33 3 -15 31 -94 61 -175 32 -86 53 -156 49 -167 -3
-10 -44 -58 -91 -107 -46 -49 -89 -96 -94 -105 -8 -14 10 -17 158 -27 117 -7
183 -7 222 0 34 6 121 8 227 4 100 -3 182 -2 197 3 29 12 38 48 61 246 8 72
19 156 25 187 17 90 4 120 -100 233 -99 108 -254 306 -285 363 -14 27 -19 56
-19 107 1 71 7 95 116 435 l43 135 0 225 0 225 -37 99 c-21 54 -50 121 -65
149 -41 76 -192 225 -303 297 -178 117 -276 152 -325 114z"/>
</g>
</svg>
